<svg xmlns="http://www.w3.org/2000/svg" x="0px" y="0px" width="100" height="100" viewBox="0,0,256,256">
<g fill="#fff" fill-rule="nonzero" stroke="none" stroke-width="1" stroke-linecap="butt" stroke-linejoin="miter" stroke-miterlimit="10" stroke-dasharray="" stroke-dashoffset="0" font-family="none" font-weight="none" font-size="none" text-anchor="none" style="mix-blend-mode: normal"><g transform="scale(5.12,5.12)"><path d="M25,8c-9.389,0 -17,7.611 -17,17c0,9.389 7.611,17 17,17c9.389,0 17,-7.611 17,-17c0,-9.389 -7.611,-17 -17,-17zM25,9c8.837,0 16,7.163 16,16c0,7.31591 -4.91495,13.47209 -11.61914,15.37891c-0.13629,-0.20623 -0.23557,-0.44651 -0.22852,-0.72852c0.027,-1.057 0,-3.52078 0,-4.42578c0,-1.553 -0.98242,-2.6543 -0.98242,-2.6543c0,0 7.70898,0.08733 7.70898,-8.13867c0,-3.174 -1.65625,-4.82617 -1.65625,-4.82617c0,0 0.87027,-3.38917 -0.30273,-4.82617c-1.315,-0.142 -3.67078,1.25716 -4.67578,1.91016c0,0 -1.59119,-0.65234 -4.24219,-0.65234c-2.651,0 -4.24414,0.65234 -4.24414,0.65234c-1.006,-0.653 -3.36078,-2.05216 -4.67578,-1.91016c-1.173,1.437 -0.30273,4.82617 -0.30273,4.82617c0,0 -1.6582,1.65022 -1.6582,4.82422c0,8.226 7.70898,8.13867 7.70898,8.13867c0,0 -0.77627,0.87482 -0.94727,2.16211c-0.5318,0.18849 -1.26729,0.41602 -1.96875,0.41602c-1.673,0 -2.94416,-1.62691 -3.41016,-2.37891c-0.46,-0.742 -1.40225,-1.36523 -2.28125,-1.36523c-0.579,0 -0.86328,0.29009 -0.86328,0.62109c0,0.331 0.81166,0.56083 1.34766,1.17383c1.13,1.293 1.10981,4.20313 5.13281,4.20313c0.47416,0 1.32562,-0.10771 2.00781,-0.20117c-0.00441,0.94422 -0.01494,1.86483 0,2.44922c0.00706,0.2824 -0.09192,0.52405 -0.22852,0.73047c-6.70419,-1.90681 -11.61914,-8.063 -11.61914,-15.37891c0,-8.837 7.163,-16 16,-16z"></path></g></g>
</svg>